<svg width="900" height="493" viewBox="0 0 900 493" fill="none" xmlns="http://www.w3.org/2000/svg">
<path d="M141.275 192.277C113.964 184.552 70.271 174.269 22.4409 187.016C13.5684 189.383 7.51785 193.305 3.28488 200.743C1.18036 204.45 -0.756767 208.467 0.295497 212.581C1.20427 216.072 6.1786 217.292 10.1724 217.914C14.0227 218.512 22.7278 218.966 25.0715 216.168C26.2912 214.709 26.3151 210.596 19.9537 209.257C17.61 208.754 11.2008 208.539 10.6986 207.463C10.6986 207.463 10.9138 206.722 14.4293 205.622C15.9838 205.143 27.3913 200.456 58.5287 201.46C95.5493 202.656 127.906 211.313 162.105 224.801C195.562 237.979 233.181 261.822 255.254 290.185C263.601 300.923 273.956 318.549 275.319 333.424C278.619 369.488 243.392 399.932 171.862 397.492C159.642 397.086 144.79 394.168 144.79 394.168L143.308 324.527C143.308 324.527 173.584 324.288 207.041 335.313C209.887 336.246 212.757 338.111 213.02 340.885C213.211 343.014 211.537 344.831 209.648 346.481C206.18 349.519 201.421 350.834 200.369 352.101C199.604 353.034 199.604 354.445 200.584 355.234C203.095 357.171 209.265 358.511 213.451 358.128C221.893 357.387 227.513 352.508 231.746 346.123C236.266 339.307 238.848 321.992 214.79 310.944C183.724 296.666 143.116 299.345 143.116 299.345C143.116 299.345 142.901 289.898 142.495 283.609C141.801 273.301 138.931 253.021 129.557 247.186C127.835 246.134 125.73 246.014 124.534 247.616C122.717 250.008 120.923 259.072 120.517 261.415C116.977 282.509 117.169 301.401 116.977 301.665C116.882 301.784 116.762 301.88 116.618 301.999C116.26 302.239 93.8035 304.917 72.1125 314.292C63.4552 318.046 51.0911 324.79 47.3365 333.496C42.5056 344.736 51.0194 357.028 65.3684 370.636C77.5412 382.163 95.4775 394.288 108.774 400.577C112.17 402.18 116.14 404.141 116.14 404.141C116.14 404.141 117.001 412.176 117.695 416.84C120.206 433.604 132.976 431.165 136.492 430.447C142.208 429.275 143.308 425.473 144.097 421.049C144.527 418.633 144.336 415.166 144.336 415.166C144.336 415.166 152.993 417.15 158.805 418.227C175.713 421.36 194.055 421.886 209.959 419.709C273.597 411.004 289.62 381.039 294.69 373.027C303.491 359.109 322.192 320.318 265.896 262.779C253.03 249.625 215.866 213.418 141.251 192.277H141.275ZM57.2373 349.16C54.9175 346.768 53.1478 344.186 53.6979 341.077C54.224 338.063 60.1071 335.409 63.0965 334.524C91.7946 326.058 116.14 325.627 116.14 325.627C116.14 325.627 115.925 335.935 115.853 346.338C115.758 366.068 116.284 386.085 116.284 386.085C116.284 386.085 83.9026 376.662 57.2612 349.136L57.2373 349.16Z" fill="white"/>
<path d="M348.786 276.673C362.25 271.412 372.629 263.831 383.152 253.069C389.298 246.827 394.679 236.544 392.718 227.169C391.737 222.506 389.609 219.301 385.711 215.953C383.774 214.279 379.349 211.935 375.738 211.218C374.686 211.002 373.586 210.931 373.131 210.644C372.629 210.309 372.199 209.639 371.72 209.018C369.353 206.028 364.689 203.158 361.317 202.01C350.986 198.447 337.211 201.126 327.836 205.095C317.888 209.305 308.728 215.475 301.769 222.936C283.498 242.523 291.509 258.043 293.135 260.937C294.523 263.376 297.081 266.031 297.655 268.59C297.99 270.121 297.679 272.106 297.751 273.899C297.871 278.013 299.664 282.269 302.773 285.02C304.997 286.981 308.178 287.555 311.383 282.7C312.459 281.074 314.252 277.749 314.252 277.749C314.252 277.749 317.983 279.902 326.999 280.548C333.719 281.026 342.903 278.993 348.81 276.697L348.786 276.673ZM305.667 252.997C305.667 252.997 305.045 251.682 304.639 250.702C301.864 243.814 307.987 236.042 313.559 231.306C324.416 222.051 333.672 222.266 333.672 222.266C333.672 222.266 331.447 224.036 329.63 225.639C313.774 239.509 305.667 252.997 305.667 252.997ZM329.462 252.758C336.111 244.197 348.403 233.554 356.989 228.437C363.709 224.419 369.52 223.319 373.849 225.232C376.432 226.356 378.488 228.7 378.823 231.809C379.971 241.47 368.827 249.554 361.365 253.882C344.433 263.759 324.392 261.535 323.866 260.626C323.795 260.387 327.932 254.743 329.462 252.734V252.758Z" fill="white"/>
<path d="M732.809 305.253C711.238 290.282 676.441 337.73 661.136 361.262C658.864 349.281 666.971 334.095 666.971 334.095C666.971 334.095 679.957 311.591 681.798 307.023C683.568 302.431 684.596 292.985 682.372 292.028C680.34 291.096 676.848 294.109 676.848 294.109C647.672 320.296 643.582 349.353 643.582 349.353C640.832 364.993 644.06 375.994 648.772 383.671C632.557 418.228 624.617 448.361 626.722 466.202C628.683 479.762 638.416 489.567 644.3 491.647C650.254 494.135 651.307 486.96 651.307 486.96C656.137 450.107 664.579 425.45 674.6 401.105C705.02 408.088 727.907 378.481 736.014 364.324C740.773 355.834 743.356 344.498 743.356 333.832C743.356 321.683 740.008 310.395 732.761 305.229L732.809 305.253ZM713.008 364.013C709.516 367.313 697.965 373.818 685.984 375.181C697.415 353.036 711.597 336.749 719.465 328.044C728.624 317.737 729.82 327.088 729.82 327.088C731.948 345.263 718.723 358.943 713.031 363.989L713.008 364.013Z" fill="white"/>
<path d="M632.894 381.543C634.353 375.994 629.307 369.944 624.739 368.796C620.482 367.911 587.838 374.033 583.94 375.085C579.731 376.209 581.62 372.263 581.62 372.263L586.666 355.188C586.666 355.188 617.827 353.992 622.347 353.227C626.532 352.486 626.795 349.52 626.795 349.52C626.795 349.52 627.346 344.642 627.178 340.074C626.724 335.195 622.802 335.649 622.802 335.649C610.748 334.382 594.199 335.817 594.199 335.817L598.384 322.711C598.384 322.711 631.531 321.109 644.134 318.191C650.615 316.661 646.788 310.299 646.788 310.299C638.92 294.587 629.881 295.472 629.881 295.472C603.813 294.587 565.932 301.499 561.818 303.555C557.944 305.301 558.374 308.219 563.42 314.58C568.825 321.276 577.937 320.655 577.937 320.655L569.949 337.18C563.42 337.634 561.196 339.667 561.196 339.667C557.442 343.685 562.631 355.523 562.631 355.523C562.631 355.523 551.319 380.897 559.522 394.313C568.347 408.399 578.75 407.706 578.75 407.706C598.6 409.141 631.172 388.382 632.918 381.519L632.894 381.543Z" fill="white"/>
<path d="M518.99 280.691C518.99 280.691 514.375 278.539 513.203 283.13C512.031 287.698 513.777 292.553 513.777 292.553C525.256 331.535 527.887 354.565 527.887 354.565C527.887 354.565 528.413 361.333 527.098 361.715C526.189 362.409 525.16 361.452 525.16 361.452C523.845 361.5 511.242 340.359 511.242 340.359L508.803 336.222C494.932 313.861 486.538 306.232 486.538 306.232C484.577 304.391 479.531 299.321 473.241 306.304C466.951 313.335 462.025 335.887 460.04 357.076C458.366 378.241 459.633 390.27 462.718 395.364C466.114 400.506 472.667 402.251 478.072 397.851C483.787 393.451 482.711 365.542 483.62 351.241C484.481 336.868 485.892 339.427 485.892 339.427C487.159 339.092 493.688 352.245 493.688 352.245C493.688 352.245 510.931 387.52 521.741 392.757C532.694 397.971 541.518 389.576 544.866 381.732C548.262 373.816 554.026 347.653 545.44 318.644C536.807 289.659 518.99 280.691 518.99 280.691Z" fill="white"/>
<path d="M339.933 355.354C339.479 345.693 338.331 321.06 335.652 309.94C334.48 305.156 332.543 300.78 327.832 298.986C327.282 298.771 326.66 298.604 326.254 298.532C323.312 297.958 321.614 302.024 320.825 304.056C318.505 310.035 316.807 324.336 316.353 328.785C314.966 342.297 313.842 374.271 316.185 390.581C317.166 397.421 319.414 401.845 326.325 403.28C329.123 403.854 334.217 403.758 336.465 402.323C338.426 401.104 339.79 398.736 340.244 396.703C341.512 391.036 341.009 382.976 340.77 376.902C340.459 369.751 340.292 362.624 339.957 355.402L339.933 355.354Z" fill="white"/>
<path d="M451.379 301.45C436.479 293.534 411.967 293.51 396.804 295.399C381.14 297.336 360.166 302.215 351.198 315.105C347.778 320.008 345.77 327.565 347.348 333.711C348.233 337.131 350.696 339.714 354.259 341.579C360.597 344.879 381.786 345.597 391.232 346.601C400.129 347.558 416.51 349.136 425.526 352.915C425.526 352.915 434.088 355.904 434.016 360.783C434.016 363.198 432.199 365.112 430.357 366.427C416.965 375.921 398.55 378.624 382.168 378.361C376.62 378.289 372.052 377.404 366.408 374.989C364.017 373.936 360.884 372.023 361.314 368.747C361.984 363.509 367.987 362.194 372.746 362.648C375.4 362.888 378.868 364.035 381.475 365.04C391.974 369.177 396.78 372.669 406.012 371.282C409.455 370.756 421.413 368.173 423.015 363.246C423.422 362.051 422.848 360.759 421.963 359.85C420.696 358.559 413.521 355.761 411.56 355.067C404.529 352.556 391.16 350.284 383.771 349.997C374.037 349.662 360.669 351.647 355.12 359.707C350.122 366.977 348.998 381.637 373.822 393.977C385.349 399.717 399.339 402.252 412.23 400.841C419.595 400.004 440.808 396.68 448.844 379.819C453.148 370.732 452.742 358.607 448.102 349.997C445.041 344.329 441.31 336.748 413.617 333.281C409.192 332.731 376.62 328.952 373.631 328.474C371.981 328.211 364.352 327.302 367.03 324.408C367.771 323.571 370.091 322.949 371.43 322.567C388.53 317.903 410.245 318.429 428.205 317.425C432.223 317.186 441.334 316.636 445.759 315.225C449.968 313.909 453.435 310.944 454.392 306.328C454.87 303.865 453.698 302.717 451.403 301.497L451.379 301.45Z" fill="white"/>
<path d="M895.696 322.519H844.517C843.944 304.822 842.174 287.364 839.161 270.193C838.634 267.251 836.075 265.099 833.11 265.099H819.311C816.609 265.099 814.576 267.562 815.078 270.216C818.307 287.364 820.22 304.822 820.818 322.543H768.826C766.459 322.543 764.521 324.48 764.521 326.871V342.56C764.521 344.951 766.459 346.888 768.826 346.888H820.818C820.22 364.609 818.307 382.067 815.078 399.214C814.576 401.869 816.609 404.332 819.311 404.332H833.11C836.099 404.332 838.658 402.18 839.161 399.238C842.15 382.067 843.944 364.585 844.517 346.912H895.696C898.063 346.912 900 344.975 900 342.583V326.895C900 324.504 898.063 322.567 895.696 322.567V322.519Z" fill="white"/>
<path d="M190.966 132.609C192.999 134.02 195.845 132.968 197.878 130.791C215.431 111.875 234.635 95.421 256.518 80.4741C400.032 -17.5538 610.724 -3.30042 734.006 120.915C774.494 161.498 796.783 205.096 808.478 239.342C809.339 241.853 811.658 243.527 814.313 243.527H828.471C831.412 243.527 833.493 240.633 832.56 237.835C817.231 192.397 787.504 142.534 744.361 101.998C614.957 -19.8975 405.365 -33.4335 259.292 66.2207C235.401 82.3634 211.653 103.026 190.799 126.654C188.742 128.974 189.436 131.509 191.014 132.609H190.966Z" fill="white"/>
</svg>
